<mxfile host="app.diagrams.net" modified="2025-04-09T08:53:58.239Z" agent="Mozilla/5.0 (Windows NT 10.0; Win64; x64) AppleWebKit/537.36 (KHTML, like Gecko) Chrome/134.0.0.0 Safari/537.36 Edg/134.0.0.0" version="24.4.10" etag="4mDaH-sr56xjtyCD5rgI" type="github">
  <diagram name="第 1 页" id="rT0XGQqfWtDKfyvZjatR">
    <mxGraphModel>
      <root>
        <mxCell id="0" />
        <mxCell id="1" parent="0" />
      </root>
    </mxGraphModel>
  </diagram>
</mxfile>
